<svg width="22" height="20" viewBox="0 0 22 20" fill="none" xmlns="http://www.w3.org/2000/svg">
<path d="M18.4791 8.1633L11.6955 14.4133C11.601 14.5007 11.4887 14.57 11.365 14.6174C11.2413 14.6647 11.1087 14.689 10.9748 14.689C10.8408 14.689 10.7082 14.6647 10.5846 14.6174C10.4609 14.57 10.3485 14.5007 10.254 14.4133L3.47048 8.1633C3.27933 7.98718 3.17194 7.74831 3.17194 7.49923C3.17194 7.25016 3.27933 7.01129 3.47048 6.83517C3.66164 6.65905 3.9209 6.56011 4.19123 6.56011C4.46157 6.56011 4.72083 6.65905 4.91198 6.83517L10.9756 12.4219L17.0392 6.83439C17.2304 6.65827 17.4897 6.55933 17.76 6.55933C18.0303 6.55933 18.2896 6.65827 18.4808 6.83439C18.6719 7.01051 18.7793 7.24938 18.7793 7.49845C18.7793 7.74752 18.6719 7.98639 18.4808 8.16252L18.4791 8.1633Z" fill="#141414" fill-opacity="0.8"/>
</svg>
